<svg width="687" height="167" viewBox="0 0 687 167" fill="none" xmlns="http://www.w3.org/2000/svg">
<path d="M52.3936 84.1133L66.5537 21.9062H74.708L77.9307 29.6211L62.8428 93H53.9072L52.3936 84.1133ZM46.876 21.9062L58.7412 84.4062L56.6904 93H46.5342L31.1045 21.9062H46.876ZM88.0381 84.0645L99.7568 21.9062H115.479L100.05 93H89.9912L88.0381 84.0645ZM80.0303 21.9062L94.3857 84.4551L92.7256 93H83.8389L68.5068 29.5723L71.876 21.9062H80.0303ZM118.263 67.1211V66.0957C118.263 62.222 118.816 58.6576 119.923 55.4023C121.03 52.1146 122.657 49.2663 124.806 46.8574C126.954 44.4486 129.591 42.5768 132.716 41.2422C135.841 39.875 139.422 39.1914 143.458 39.1914C147.56 39.1914 151.173 39.875 154.298 41.2422C157.455 42.5768 160.108 44.4486 162.257 46.8574C164.405 49.2663 166.033 52.1146 167.14 55.4023C168.246 58.6576 168.8 62.222 168.8 66.0957V67.1211C168.8 70.9622 168.246 74.5267 167.14 77.8145C166.033 81.0697 164.405 83.918 162.257 86.3594C160.108 88.7682 157.472 90.64 154.347 91.9746C151.222 93.3092 147.625 93.9766 143.556 93.9766C139.519 93.9766 135.922 93.3092 132.765 91.9746C129.607 90.64 126.954 88.7682 124.806 86.3594C122.657 83.918 121.03 81.0697 119.923 77.8145C118.816 74.5267 118.263 70.9622 118.263 67.1211ZM133.546 66.0957V67.1211C133.546 69.2044 133.709 71.1576 134.034 72.9805C134.392 74.8034 134.962 76.3984 135.743 77.7656C136.524 79.1328 137.55 80.207 138.819 80.9883C140.121 81.737 141.7 82.1113 143.556 82.1113C145.411 82.1113 146.974 81.737 148.243 80.9883C149.513 80.207 150.538 79.1328 151.319 77.7656C152.101 76.3984 152.654 74.8034 152.979 72.9805C153.338 71.1576 153.517 69.2044 153.517 67.1211V66.0957C153.517 64.0449 153.338 62.1243 152.979 60.334C152.654 58.5111 152.101 56.8997 151.319 55.5C150.538 54.1003 149.496 53.0098 148.194 52.2285C146.925 51.4473 145.346 51.0566 143.458 51.0566C141.635 51.0566 140.089 51.4473 138.819 52.2285C137.55 53.0098 136.524 54.1003 135.743 55.5C134.962 56.8997 134.392 58.5111 134.034 60.334C133.709 62.1243 133.546 64.0449 133.546 66.0957ZM192.091 52.4727V93H176.856V40.168H191.163L192.091 52.4727ZM207.862 39.7773L207.618 53.9863C206.967 53.8887 206.121 53.8073 205.079 53.7422C204.037 53.6445 203.142 53.5957 202.394 53.5957C200.44 53.5957 198.748 53.8398 197.315 54.3281C195.916 54.7839 194.744 55.4674 193.8 56.3789C192.888 57.2904 192.205 58.4297 191.749 59.7969C191.293 61.1315 191.065 62.6777 191.065 64.4355L188.185 63.0195C188.185 59.5365 188.526 56.3464 189.21 53.4492C189.894 50.5521 190.886 48.0456 192.188 45.9297C193.491 43.7812 195.086 42.1211 196.974 40.9492C198.862 39.7773 201.01 39.1914 203.419 39.1914C204.2 39.1914 204.998 39.2402 205.812 39.3379C206.625 39.4355 207.309 39.582 207.862 39.7773ZM229.444 17.9512V93H214.161V17.9512H229.444ZM262.989 40.168L239.991 66.7305L227.833 78.9375L221.729 68.6348L231.593 55.8906L244.63 40.168H262.989ZM246.876 93L231.983 68.7324L242.921 60.1875L264.356 93H246.876ZM296.339 78.3027C296.339 77.3262 296.03 76.4635 295.411 75.7148C294.825 74.9661 293.751 74.2826 292.188 73.6641C290.659 73.0456 288.494 72.4271 285.694 71.8086C283.058 71.2552 280.6 70.5391 278.321 69.6602C276.043 68.7487 274.057 67.6582 272.364 66.3887C270.672 65.0866 269.353 63.5566 268.409 61.7988C267.465 60.0085 266.993 57.974 266.993 55.6953C266.993 53.4818 267.465 51.3822 268.409 49.3965C269.386 47.4108 270.785 45.653 272.608 44.123C274.464 42.5931 276.71 41.3887 279.347 40.5098C282.016 39.6309 285.043 39.1914 288.429 39.1914C293.084 39.1914 297.104 39.9238 300.489 41.3887C303.875 42.821 306.479 44.8392 308.302 47.4434C310.125 50.015 311.036 52.9609 311.036 56.2812H295.802C295.802 54.9141 295.541 53.7259 295.021 52.7168C294.5 51.7077 293.702 50.9264 292.628 50.373C291.554 49.7871 290.138 49.4941 288.38 49.4941C287.013 49.4941 285.808 49.7383 284.767 50.2266C283.757 50.6823 282.96 51.3171 282.374 52.1309C281.821 52.9447 281.544 53.8887 281.544 54.9629C281.544 55.7116 281.707 56.3952 282.032 57.0137C282.39 57.5996 282.927 58.153 283.644 58.6738C284.392 59.1621 285.353 59.6016 286.524 59.9922C287.729 60.3828 289.194 60.7572 290.919 61.1152C294.597 61.7988 297.95 62.7591 300.978 63.9961C304.037 65.2331 306.479 66.9421 308.302 69.123C310.157 71.304 311.085 74.1849 311.085 77.7656C311.085 80.1094 310.548 82.2578 309.474 84.2109C308.432 86.1641 306.918 87.873 304.933 89.3379C302.947 90.8027 300.571 91.9421 297.804 92.7559C295.037 93.5697 291.912 93.9766 288.429 93.9766C283.448 93.9766 279.233 93.0814 275.782 91.291C272.332 89.5007 269.728 87.2546 267.97 84.5527C266.244 81.8184 265.382 79.0189 265.382 76.1543H279.688C279.754 77.9121 280.193 79.3444 281.007 80.4512C281.853 81.5579 282.944 82.3717 284.278 82.8926C285.613 83.3809 287.11 83.625 288.771 83.625C290.431 83.625 291.814 83.3971 292.921 82.9414C294.028 82.4857 294.874 81.8672 295.46 81.0859C296.046 80.2721 296.339 79.3444 296.339 78.3027ZM334.474 18V93H319.239V18H334.474ZM332.472 64.7285L328.663 64.8262C328.663 61.1152 329.119 57.7135 330.03 54.6211C330.974 51.4961 332.309 48.778 334.034 46.4668C335.759 44.1556 337.826 42.3652 340.235 41.0957C342.677 39.8262 345.362 39.1914 348.292 39.1914C350.896 39.1914 353.272 39.5658 355.421 40.3145C357.569 41.0632 359.425 42.2513 360.987 43.8789C362.55 45.5065 363.754 47.6387 364.601 50.2754C365.447 52.9121 365.87 56.1185 365.87 59.8945V93H350.538V59.7969C350.538 57.5508 350.213 55.793 349.562 54.5234C348.943 53.2539 348.032 52.3587 346.827 51.8379C345.655 51.3171 344.223 51.0566 342.53 51.0566C340.545 51.0566 338.901 51.4147 337.599 52.1309C336.297 52.8145 335.271 53.7747 334.522 55.0117C333.774 56.2487 333.237 57.6973 332.911 59.3574C332.618 61.0176 332.472 62.8079 332.472 64.7285ZM400.733 93.9766C396.534 93.9766 392.774 93.3092 389.454 91.9746C386.134 90.64 383.318 88.8008 381.007 86.457C378.728 84.0807 376.987 81.3464 375.782 78.2539C374.578 75.1615 373.976 71.8574 373.976 68.3418V66.4863C373.976 62.5475 374.529 58.918 375.636 55.5977C376.743 52.2773 378.354 49.3965 380.47 46.9551C382.618 44.4811 385.255 42.5768 388.38 41.2422C391.505 39.875 395.069 39.1914 399.073 39.1914C402.817 39.1914 406.153 39.8099 409.083 41.0469C412.013 42.2513 414.487 43.9928 416.505 46.2715C418.523 48.5176 420.053 51.2357 421.095 54.4258C422.169 57.5833 422.706 61.1315 422.706 65.0703V71.3203H380.128V61.5059H407.765V60.334C407.765 58.4785 407.423 56.8509 406.739 55.4512C406.088 54.0514 405.112 52.9772 403.81 52.2285C402.54 51.4473 400.929 51.0566 398.976 51.0566C397.12 51.0566 395.574 51.4473 394.337 52.2285C393.1 53.0098 392.107 54.1165 391.358 55.5488C390.642 56.9486 390.121 58.5924 389.796 60.4805C389.47 62.3359 389.308 64.3379 389.308 66.4863V68.3418C389.308 70.3926 389.584 72.2643 390.138 73.957C390.691 75.6497 391.505 77.0983 392.579 78.3027C393.653 79.5072 394.955 80.4512 396.485 81.1348C398.015 81.8184 399.757 82.1602 401.71 82.1602C404.119 82.1602 406.414 81.7044 408.595 80.793C410.776 79.849 412.664 78.3841 414.259 76.3984L421.388 84.5527C420.313 86.1152 418.8 87.6289 416.847 89.0938C414.926 90.526 412.615 91.6979 409.913 92.6094C407.211 93.5208 404.151 93.9766 400.733 93.9766ZM455.03 93.9766C450.831 93.9766 447.071 93.3092 443.751 91.9746C440.431 90.64 437.615 88.8008 435.304 86.457C433.025 84.0807 431.284 81.3464 430.079 78.2539C428.875 75.1615 428.272 71.8574 428.272 68.3418V66.4863C428.272 62.5475 428.826 58.918 429.933 55.5977C431.039 52.2773 432.651 49.3965 434.767 46.9551C436.915 44.4811 439.552 42.5768 442.677 41.2422C445.802 39.875 449.366 39.1914 453.37 39.1914C457.114 39.1914 460.45 39.8099 463.38 41.0469C466.31 42.2513 468.784 43.9928 470.802 46.2715C472.82 48.5176 474.35 51.2357 475.392 54.4258C476.466 57.5833 477.003 61.1315 477.003 65.0703V71.3203H434.425V61.5059H462.062V60.334C462.062 58.4785 461.72 56.8509 461.036 55.4512C460.385 54.0514 459.409 52.9772 458.106 52.2285C456.837 51.4473 455.226 51.0566 453.272 51.0566C451.417 51.0566 449.871 51.4473 448.634 52.2285C447.397 53.0098 446.404 54.1165 445.655 55.5488C444.939 56.9486 444.418 58.5924 444.093 60.4805C443.767 62.3359 443.604 64.3379 443.604 66.4863V68.3418C443.604 70.3926 443.881 72.2643 444.435 73.957C444.988 75.6497 445.802 77.0983 446.876 78.3027C447.95 79.5072 449.252 80.4512 450.782 81.1348C452.312 81.8184 454.054 82.1602 456.007 82.1602C458.416 82.1602 460.711 81.7044 462.892 80.793C465.073 79.849 466.961 78.3841 468.556 76.3984L475.685 84.5527C474.61 86.1152 473.097 87.6289 471.144 89.0938C469.223 90.526 466.912 91.6979 464.21 92.6094C461.508 93.5208 458.448 93.9766 455.03 93.9766ZM511.28 40.168V50.8613H479.933V40.168H511.28ZM487.11 27.082H502.394V76.4473C502.394 77.9121 502.573 79.0352 502.931 79.8164C503.289 80.5977 503.875 81.151 504.688 81.4766C505.502 81.7695 506.544 81.916 507.813 81.916C508.725 81.916 509.506 81.8835 510.157 81.8184C510.808 81.7533 511.41 81.6719 511.964 81.5742V92.6094C510.662 93.0326 509.278 93.3581 507.813 93.5859C506.349 93.8464 504.754 93.9766 503.028 93.9766C499.741 93.9766 496.892 93.4395 494.483 92.3652C492.107 91.291 490.284 89.5983 489.015 87.2871C487.745 84.9434 487.11 81.8997 487.11 78.1562V27.082ZM598.731 35.4316L580.372 93H563.38L589.698 21.9062H600.44L598.731 35.4316ZM613.966 93L595.558 35.4316L593.653 21.9062H604.542L630.958 93H613.966ZM613.185 66.5352V78.8398H576.124V66.5352H613.185ZM652.149 40.168V93H636.866V40.168H652.149ZM635.938 26.4961C635.938 24.2826 636.72 22.4759 638.282 21.0762C639.845 19.6439 641.896 18.9277 644.435 18.9277C646.974 18.9277 649.024 19.6439 650.587 21.0762C652.182 22.4759 652.979 24.2826 652.979 26.4961C652.979 28.6771 652.182 30.4837 650.587 31.916C649.024 33.3158 646.974 34.0156 644.435 34.0156C641.896 34.0156 639.845 33.3158 638.282 31.916C636.72 30.4837 635.938 28.6771 635.938 26.4961Z" fill="black"/>
<path d="M483.719 42.1483L549.721 92.4198L517.638 116.169L546.162 165.852L480.815 102.066L518.873 90.6717L483.719 42.1483Z" fill="#F5DA2E" stroke="#FFC107"/>
</svg>
